<svg width="70" height="22" viewBox="0 0 70 22" fill="none" xmlns="http://www.w3.org/2000/svg">
<g id="Layer_1" clip-path="url(#clip0_324_3043)">
<path id="Vector" d="M0 0.841494H12.2341V4.67616H4.84137V9.19093H12.6375V13.0256H0V0.841494ZM1.26029 14.4088H6.25535V17.3098H20.23V21.3443H1.26029V14.405V14.4088ZM22.3471 4.74917V8.73369H19.8496V13.8056H14.8545V0.434204H19.8496V4.74917H22.3471Z" fill="black"/>
<path id="Vector_2" d="M39.019 6.92014H43.7604V0.488037H34.7271V4.34576H39.019V6.92014Z" fill="black"/>
<path id="Vector_3" d="M44.6671 11.5847V7.84998H23.4766V11.5847H31.4226V13.1985H24.2835V21.3213H43.8603V13.1985H36.6443V11.5847H44.6671ZM38.992 17.7402H29.1556V16.7796H38.992V17.7402Z" fill="black"/>
<path id="Vector_4" d="M29.102 6.92014H33.7935V0.488037H24.4604V4.34576H29.102V6.92014Z" fill="black"/>
<path id="Vector_5" d="M59.1108 0C53.0937 0 48.2178 4.87595 48.2178 10.8931C48.2178 16.9102 53.0937 21.7861 59.1108 21.7861H67.8253L63.4681 17.4289H59.1108C55.5029 17.4289 52.575 14.5049 52.575 10.8931C52.575 7.28126 55.499 4.35723 59.1108 4.35723C61.9542 4.35723 64.3749 6.17466 65.274 8.71446H54.7575L59.1147 13.0717H69.7887C69.9309 12.3685 70.0078 11.6385 70.0078 10.8931C70.0078 4.87595 65.1318 0 59.1147 0L59.1108 0Z" fill="#FF6700"/>
</g>
<defs>
<clipPath id="clip0_324_3043">
<rect width="70" height="21.7823" fill="white"/>
</clipPath>
</defs>
</svg>
